<svg xmlns="http://www.w3.org/2000/svg" xmlns:xlink="http://www.w3.org/1999/xlink" viewBox="0 0 90.91 91.56"><defs><style>.cls-1{fill:none;}.cls-2{fill:#f4f4f4;}.cls-3{clip-path:url(#clip-path);}.cls-4{fill:#446adc;}.cls-5{fill:#c6c6c6;}.cls-6{fill:#e8e8e8;}.cls-7{fill:#fc8b23;}</style><clipPath id="clip-path" transform="translate(-0.02 -0.07)"><ellipse class="cls-1" cx="45.54" cy="45.5" rx="45.54" ry="45.5"/></clipPath></defs><g id="Слой_2" data-name="Слой 2"><g id="Layer_1" data-name="Layer 1"><g id="_6Lv" data-name="6Lv"><circle class="cls-2" cx="45.45" cy="45.45" r="45.45"/><g class="cls-3"><polygon class="cls-4" points="36.48 61.03 38.79 55.52 51.71 55.4 54.24 60.96 36.48 61.03"/><path class="cls-5" d="M54.86,60.44l2.62,7.85c8.49,2.94,13.33,3.25,14.84,15,0,10.86-54.15,10.86-54.15,0-.53-9.52,5.18-12,14.66-15l2.62-7.67c.23-.8,1.45-1.64,2.27-2.47,0,0-.57,1.54-.57,1.65a27,27,0,0,0,16.48,0c-.06-.24-.56-1.25-.74-1.8A7.68,7.68,0,0,1,54.86,60.44Z" transform="translate(-0.02 -0.07)"/><path class="cls-4" d="M21.88,83.18l-1.5,3c-1,2-13.76-3.12-13.12-5.92a3.44,3.44,0,0,1,2.13-1.65c-.2-.49.86-3.44,1.72-4.11C17,76.27,20.82,78.23,21.88,83.18Z" transform="translate(-0.02 -0.07)"/><path class="cls-4" d="M25.83,64.5a16.55,16.55,0,0,0-5.53-1c-3.19-.17-7.73,4.52-8.82,9.45l10.68,9.38L26,83.65l3.29-1.48L32,70.06Z" transform="translate(-0.02 -0.07)"/><path class="cls-6" d="M10.54,75c5.37,1.91,9.68,4.28,11,8.82l5.59.49-2-2.66-2.65-.49c-1.27-3.31-4-5.63-11-8.17A1.41,1.41,0,0,0,10.54,75Z" transform="translate(-0.02 -0.07)"/><path class="cls-6" d="M24.69,64.93A25.76,25.76,0,0,1,29.15,69c.54.77.93.78.55,2.41l-1.9,8.93c.27.86.78,1.08,1,1.83l.61.36c.42-2.6,1.42-6.92,2.51-11.7a1.48,1.48,0,0,0-.26-1.46,15.49,15.49,0,0,0-6-5.24C24.54,63.62,24.38,64.8,24.69,64.93Z" transform="translate(-0.02 -0.07)"/><path class="cls-6" d="M10.34,80a22.81,22.81,0,0,0,8.42,4.22" transform="translate(-0.02 -0.07)"/><path class="cls-6" d="M18.76,85.15a.83.83,0,0,1-.22,0,23.42,23.42,0,0,1-8.76-4.39.91.91,0,0,1,1.13-1.43,21.46,21.46,0,0,0,8.08,4,.92.92,0,0,1-.23,1.8Z" transform="translate(-0.02 -0.07)"/><circle class="cls-4" cx="27.04" cy="81.84" r="2.44"/><circle class="cls-7" cx="27.04" cy="81.92" r="1.04"/><path class="cls-4" d="M69.19,82.7l1.5,3c1,2,13.76-3.12,13.12-5.91a3.41,3.41,0,0,0-2.13-1.65c.2-.49-.86-3.44-1.72-4.11C74.08,75.79,70.25,77.75,69.19,82.7Z" transform="translate(-0.02 -0.07)"/><path class="cls-4" d="M65.24,64a16.29,16.29,0,0,1,5.53-1c3.19-.16,7.73,4.53,8.82,9.45L68.91,81.89l-3.86,1.28L61.77,81.7,59.08,69.58Z" transform="translate(-0.02 -0.07)"/><path class="cls-6" d="M80.53,74.52c-5.37,1.91-9.67,4.28-11,8.83l-5.59.48,2-2.66,2.65-.48c1.27-3.32,4-5.64,11-8.18A1.41,1.41,0,0,1,80.53,74.52Z" transform="translate(-0.02 -0.07)"/><path class="cls-6" d="M66.38,64.45a25.78,25.78,0,0,0-4.46,4.11c-.54.76-.93.77-.55,2.41l1.9,8.92c-.26.86-.77,1.09-1,1.83l-.61.37c-.42-2.6-1.42-6.93-2.51-11.71a1.47,1.47,0,0,1,.26-1.45,15.54,15.54,0,0,1,6-5.25C66.53,63.15,66.69,64.32,66.38,64.45Z" transform="translate(-0.02 -0.07)"/><path class="cls-6" d="M80.73,79.54a22.66,22.66,0,0,1-8.42,4.22" transform="translate(-0.02 -0.07)"/><path class="cls-6" d="M72.31,84.67a.91.91,0,0,1-.22-1.79,21.71,21.71,0,0,0,8.07-4,.91.91,0,1,1,1.14,1.42,23.53,23.53,0,0,1-8.77,4.39A.83.83,0,0,1,72.31,84.67Z" transform="translate(-0.02 -0.07)"/><circle class="cls-4" cx="63.99" cy="81.36" r="2.44"/><circle class="cls-7" cx="63.99" cy="81.44" r="1.04"/><line class="cls-6" x1="45.19" y1="61.03" x2="45.22" y2="91.56"/><rect class="cls-6" x="44.54" y="61.1" width="1.37" height="30.53" transform="matrix(1, 0, 0, 1, -0.1, -0.02)"/><path class="cls-5" d="M58.21,47.54c-7.38,19.69-22.78,13.71-26.85-.84Z" transform="translate(-0.02 -0.07)"/><path class="cls-5" d="M27.63,34.25l34.25.41c1-9.48-2.64-17.26-12.16-20.82L46.78,9.36c-1.05-1.64-2.14-1.54-3.26,0L40.3,13.7c-9.19,4.49-13.22,12.1-12.67,19.91" transform="translate(-0.02 -0.07)"/><path class="cls-6" d="M45.23,27.87c-4.44,5.59-11,7.6-18.74,5.93,1.78,12.8,7.76,20.84,18.74,21.94,9-.77,15.89-6.26,18.73-20.93C53.15,34,47.73,30.88,45.23,27.87Z" transform="translate(-0.02 -0.07)"/><path class="cls-4" d="M34.17,44.66a.67.67,0,0,1-.68-.68V37.9a.68.68,0,0,1,1.36,0V44A.67.67,0,0,1,34.17,44.66Z" transform="translate(-0.02 -0.07)"/><path class="cls-4" d="M55.35,45.77a.69.69,0,0,1-.69-.68V39A.69.69,0,0,1,56,39v6.08A.69.69,0,0,1,55.35,45.77Z" transform="translate(-0.02 -0.07)"/><path class="cls-4" d="M50.83,48.07a.69.69,0,0,1-.69-.68V37.9a.69.69,0,0,1,1.37,0v9.49A.69.69,0,0,1,50.83,48.07Z" transform="translate(-0.02 -0.07)"/><path class="cls-4" d="M38.9,48.07a.69.69,0,0,1-.68-.68V37.9a.69.69,0,0,1,1.37,0v9.49A.69.69,0,0,1,38.9,48.07Z" transform="translate(-0.02 -0.07)"/><path class="cls-7" d="M45.23,53.24a.68.68,0,0,1-.69-.68V31.29a.69.69,0,0,1,.69-.69.68.68,0,0,1,.68.69V52.56A.67.67,0,0,1,45.23,53.24Z" transform="translate(-0.02 -0.07)"/><line class="cls-6" x1="45.21" y1="12.74" x2="45.21" y2="24.03"/><path class="cls-6" d="M45.23,24.78a.69.69,0,0,1-.69-.69V12.81a.68.68,0,0,1,.69-.68.67.67,0,0,1,.68.68V24.09A.68.68,0,0,1,45.23,24.78Z" transform="translate(-0.02 -0.07)"/></g></g></g></g></svg>