<svg width="28" height="28" viewBox="0 0 28 28" fill="none" xmlns="http://www.w3.org/2000/svg">
<mask id="mask0_2073_6024" style="mask-type:alpha" maskUnits="userSpaceOnUse" x="0" y="0" width="28" height="28">
<circle cx="14" cy="14" r="14" fill="#D9D9D9"></circle>
</mask>
<g mask="url(#mask0_2073_6024)">
<mask id="mask1_2073_6024" style="mask-type:luminance" maskUnits="userSpaceOnUse" x="-5" y="0" width="38" height="28">
<rect x="-4.48047" y="0.280029" width="36.68" height="27.51" fill="white"></rect>
</mask>
<g mask="url(#mask1_2073_6024)">
<path fill-rule="evenodd" clip-rule="evenodd" d="M-4.48047 0.280029V27.79H32.1995V0.280029H-4.48047Z" fill="#2E42A5"></path>
<mask id="mask2_2073_6024" style="mask-type:luminance" maskUnits="userSpaceOnUse" x="-5" y="0" width="38" height="28">
<path fill-rule="evenodd" clip-rule="evenodd" d="M-4.48047 0.280029V27.79H32.1995V0.280029H-4.48047Z" fill="white"></path>
</mask>
<g mask="url(#mask2_2073_6024)">
<mask id="mask3_2073_6024" style="mask-type:luminance" maskUnits="userSpaceOnUse" x="-5" y="0" width="38" height="28">
<rect x="-4.48047" y="0.280029" width="36.68" height="27.51" fill="white"></rect>
</mask>
<g mask="url(#mask3_2073_6024)">
<path d="M-8.5647 25.8247L-0.49316 29.2383L32.3827 3.99142L36.6403 -1.08129L28.0089 -2.22222L14.5996 8.65738L3.80654 15.9877L-8.5647 25.8247Z" fill="white"></path>
<path d="M-7.45959 28.2163L-3.34752 30.1973L35.1115 -1.55264H29.3377L-7.45959 28.2163Z" fill="#F50100"></path>
<path d="M36.2839 25.8247L28.2124 29.2383L-4.66347 3.99142L-8.92102 -1.08129L-0.289677 -2.22222L13.1196 8.65738L23.9127 15.9877L36.2839 25.8247Z" fill="white"></path>
<path d="M36.0085 27.5412L31.8965 29.5222L15.5202 15.9284L10.665 14.4096L-9.33067 -1.06383H-3.55684L16.4276 14.0424L21.7359 15.8636L36.0085 27.5412Z" fill="#F50100"></path>
<mask id="path-10-inside-1_2073_6024" fill="white">
<path fill-rule="evenodd" clip-rule="evenodd" d="M18.1898 -2.01245H9.52921V9.45005H-6.74133V18.62H9.52921V30.0826H18.1898V18.62H34.5237V9.45005H18.1898V-2.01245Z"></path>
</mask>
<path fill-rule="evenodd" clip-rule="evenodd" d="M18.1898 -2.01245H9.52921V9.45005H-6.74133V18.62H9.52921V30.0826H18.1898V18.62H34.5237V9.45005H18.1898V-2.01245Z" fill="#F50100"></path>
<path d="M9.52921 -2.01245V-4.30495H7.2367V-2.01245H9.52921ZM18.1898 -2.01245H20.4823V-4.30495H18.1898V-2.01245ZM9.52921 9.45005V11.7425H11.8217V9.45005H9.52921ZM-6.74133 9.45005V7.15755H-9.03383V9.45005H-6.74133ZM-6.74133 18.62H-9.03383V20.9125H-6.74133V18.62ZM9.52921 18.62H11.8217V16.3275H9.52921V18.62ZM9.52921 30.0826H7.2367V32.375H9.52921V30.0826ZM18.1898 30.0826V32.375H20.4823V30.0826H18.1898ZM18.1898 18.62V16.3275H15.8973V18.62H18.1898ZM34.5237 18.62V20.9125H36.8162V18.62H34.5237ZM34.5237 9.45005H36.8162V7.15755H34.5237V9.45005ZM18.1898 9.45005H15.8973V11.7425H18.1898V9.45005ZM9.52921 0.280049H18.1898V-4.30495H9.52921V0.280049ZM11.8217 9.45005V-2.01245H7.2367V9.45005H11.8217ZM-6.74133 11.7425H9.52921V7.15755H-6.74133V11.7425ZM-4.44883 18.62V9.45005H-9.03383V18.62H-4.44883ZM9.52921 16.3275H-6.74133V20.9125H9.52921V16.3275ZM11.8217 30.0826V18.62H7.2367V30.0826H11.8217ZM18.1898 27.7901H9.52921V32.375H18.1898V27.7901ZM15.8973 18.62V30.0826H20.4823V18.62H15.8973ZM34.5237 16.3275H18.1898V20.9125H34.5237V16.3275ZM32.2312 9.45005V18.62H36.8162V9.45005H32.2312ZM18.1898 11.7425H34.5237V7.15755H18.1898V11.7425ZM15.8973 -2.01245V9.45005H20.4823V-2.01245H15.8973Z" fill="white" mask="url(#path-10-inside-1_2073_6024)"></path>
</g>
</g>
</g>
</g>
</svg>